<?xml version="1.0" standalone="no"?>
<!DOCTYPE svg PUBLIC "-//W3C//DTD SVG 20010904//EN"
 "http://www.w3.org/TR/2001/REC-SVG-20010904/DTD/svg10.dtd">
<svg version="1.0" xmlns="http://www.w3.org/2000/svg"
 width="700.000000pt" height="700.000000pt" viewBox="0 0 700.000000 700.000000"
 preserveAspectRatio="xMidYMid meet">
<metadata>
Created by potrace 1.11, written by Peter Selinger 2001-2013
</metadata>
<g transform="translate(0.000000,700.000000) scale(0.100000,-0.100000)"
fill="#000000" stroke="none">
<path d="M6607 6514 c-1 -1 -35 -5 -76 -8 -315 -27 -719 -124 -1094 -263 -66
-24 -138 -52 -162 -63 -24 -11 -48 -20 -53 -20 -4 0 -26 -8 -48 -18 -21 -11
-68 -32 -104 -48 -96 -43 -471 -233 -502 -255 -14 -11 -29 -19 -32 -19 -8 0
-230 -135 -341 -208 -194 -127 -601 -432 -685 -513 -8 -8 -33 -29 -55 -48
-171 -145 -507 -473 -622 -606 -28 -33 -63 -73 -78 -90 -142 -164 -300 -384
-421 -585 -90 -148 -109 -177 -100 -150 2 8 7 48 11 88 3 40 8 78 10 85 2 7 6
37 9 68 14 149 74 454 127 639 73 258 144 424 295 690 64 113 246 376 309 446
5 7 26 31 45 55 197 244 531 543 779 696 l56 34 -65 -6 c-113 -12 -346 -77
-467 -131 -17 -8 -34 -14 -38 -14 -15 0 -272 -134 -354 -185 -79 -49 -268
-180 -281 -194 -3 -3 -32 -28 -65 -56 -165 -137 -282 -258 -486 -503 -103
-123 -236 -336 -321 -512 -75 -157 -75 -157 -92 -205 -7 -22 -30 -85 -50 -141
-34 -95 -94 -313 -111 -399 -5 -22 -9 -44 -11 -50 -7 -28 -43 -240 -49 -285
-3 -25 -8 -56 -10 -70 -2 -14 -7 -54 -10 -90 -3 -36 -8 -81 -11 -100 -9 -75
-29 -368 -39 -600 -22 -484 -30 -619 -45 -760 -41 -367 -97 -584 -211 -814
-41 -81 -123 -211 -176 -276 -38 -48 -161 -178 -198 -209 -16 -14 -43 -39 -60
-54 -49 -46 -252 -197 -358 -267 -88 -58 -95 -65 -75 -73 102 -39 399 -43 538
-7 19 5 46 11 60 14 103 18 345 116 495 200 126 70 313 201 410 286 94 82 268
259 322 328 32 40 63 79 68 85 24 27 137 203 181 282 43 77 50 84 72 78 132
-33 393 -37 547 -8 344 63 642 220 898 473 79 77 229 268 261 330 l17 34 -53
-40 c-85 -62 -256 -148 -385 -191 -357 -121 -719 -97 -966 63 -41 26 -47 35
-43 56 6 30 109 275 171 405 l45 94 63 -34 c80 -44 133 -63 233 -85 89 -18
237 -24 300 -10 21 5 56 11 78 14 76 12 229 82 316 145 52 37 171 159 208 213
97 140 154 328 153 503 -1 111 -3 129 -31 233 -36 133 -113 265 -218 376 l-46
48 260 257 c272 269 407 396 615 577 202 176 195 172 163 96 -8 -20 -15 -37
-14 -37 1 0 -1 -7 -4 -15 -24 -69 -72 -281 -81 -360 -3 -25 -7 -52 -10 -60 -2
-8 -7 -49 -11 -90 -3 -41 -8 -88 -9 -105 -10 -90 -17 -334 -20 -685 -3 -365
-9 -568 -20 -630 -2 -14 -7 -50 -10 -80 -12 -111 -14 -124 -50 -290 -29 -135
-116 -370 -175 -475 -13 -22 -34 -60 -48 -85 -211 -377 -581 -727 -959 -905
-49 -23 -78 -42 -71 -46 19 -12 277 -1 366 15 368 68 716 254 1005 539 279
274 451 541 571 885 34 98 89 308 100 385 8 51 17 107 21 137 2 14 7 52 10 85
4 33 8 76 10 95 10 82 17 375 20 815 2 259 5 484 8 500 2 17 7 61 11 98 4 37
9 78 12 90 2 12 7 38 10 57 13 85 57 235 97 330 103 246 262 454 571 745 35
33 266 227 337 283 101 79 101 78 3 78 -47 0 -86 -1 -87 -2z m-2834 -2536 c50
-56 104 -168 118 -243 19 -104 -2 -230 -56 -334 -28 -56 -145 -165 -207 -194
-147 -68 -306 -69 -440 -1 -25 13 -50 29 -54 35 -7 12 119 204 214 324 4 6 30
39 57 75 93 122 313 380 324 380 3 0 23 -19 44 -42z"/>
</g>
</svg>
