<?xml version="1.0" standalone="no"?>
<!DOCTYPE svg PUBLIC "-//W3C//DTD SVG 20010904//EN"
 "http://www.w3.org/TR/2001/REC-SVG-20010904/DTD/svg10.dtd">
<svg version="1.0" xmlns="http://www.w3.org/2000/svg"
 width="700.000000pt" height="700.000000pt" viewBox="0 0 700.000000 700.000000"
 preserveAspectRatio="xMidYMid meet">
<metadata>
Created by potrace 1.11, written by Peter Selinger 2001-2013
</metadata>
<g transform="translate(0.000000,700.000000) scale(0.100000,-0.100000)"
fill="#000000" stroke="none">
<path d="M638 6975 c-75 -51 -85 -108 -49 -262 34 -146 68 -238 142 -388 168
-342 436 -611 779 -781 166 -83 392 -152 555 -169 33 -4 76 -8 95 -10 19 -3
222 -5 450 -6 228 0 449 -5 490 -10 436 -52 823 -236 1130 -538 681 -669 742
-1729 142 -2472 -332 -412 -846 -674 -1362 -695 -63 -3 -295 -6 -515 -8 -220
-2 -413 -7 -430 -10 -16 -3 -66 -13 -110 -22 -80 -15 -246 -60 -275 -74 -8 -5
-55 -25 -105 -46 -217 -93 -443 -259 -599 -440 -89 -104 -93 -109 -154 -202
-103 -159 -184 -346 -228 -530 -43 -175 -33 -237 46 -290 l35 -23 1270 4 c698
2 1281 6 1295 10 14 3 53 8 88 11 34 3 73 8 85 11 12 2 38 7 57 9 70 11 201
35 208 40 4 2 24 7 44 10 43 7 273 71 327 91 216 81 185 68 346 141 519 236
998 626 1359 1107 180 240 358 571 463 857 48 131 113 345 129 425 27 136 44
228 49 265 4 25 8 56 10 70 2 14 6 52 10 85 3 33 8 85 11 115 6 64 7 476 0
505 -2 11 -7 55 -11 98 -3 43 -8 88 -10 99 -3 12 -7 44 -10 72 -6 49 -48 248
-80 375 -8 36 -36 126 -62 200 -146 432 -372 826 -678 1181 -51 60 -297 303
-354 350 -29 25 -63 53 -75 64 -98 85 -327 242 -488 335 -88 50 -290 151 -385
191 -13 6 -33 14 -45 19 -162 68 -457 157 -623 187 -16 3 -48 9 -70 14 -22 5
-62 12 -90 15 -27 4 -57 8 -65 10 -8 2 -46 7 -85 11 -38 3 -83 9 -100 12 -16
3 -590 7 -1275 9 l-1245 4 -37 -26z"/>
<path d="M2917 4664 c-1 -1 -27 -5 -57 -8 -237 -27 -469 -135 -649 -302 -184
-171 -319 -425 -360 -679 -10 -61 -8 -326 4 -380 87 -428 374 -760 775 -898
41 -14 86 -28 100 -31 14 -3 36 -7 50 -11 165 -37 433 -19 600 40 117 41 262
120 348 189 55 44 178 172 216 225 93 128 184 329 201 446 4 22 10 58 15 80
14 61 9 282 -7 371 -91 498 -494 883 -993 950 -52 6 -237 13 -243 8z"/>
</g>
</svg>
