<?xml version="1.0" standalone="no"?>
<!DOCTYPE svg PUBLIC "-//W3C//DTD SVG 20010904//EN"
 "http://www.w3.org/TR/2001/REC-SVG-20010904/DTD/svg10.dtd">
<svg version="1.0" xmlns="http://www.w3.org/2000/svg"
 width="700.000000pt" height="700.000000pt" viewBox="0 0 700.000000 700.000000"
 preserveAspectRatio="xMidYMid meet">
<metadata>
Created by potrace 1.11, written by Peter Selinger 2001-2013
</metadata>
<g transform="translate(0.000000,700.000000) scale(0.100000,-0.100000)"
fill="#000000" stroke="none">
<path d="M4430 6974 c-44 -20 -178 -149 -847 -817 -436 -435 -1121 -1118
-1522 -1517 -487 -485 -733 -738 -745 -763 -46 -100 -26 -215 52 -295 82 -84
63 -82 707 -82 642 0 624 2 707 -81 28 -28 51 -61 54 -79 4 -17 10 -33 15 -36
5 -3 9 -380 9 -837 0 -482 4 -847 10 -865 5 -18 18 -47 29 -65 11 -18 348
-359 749 -758 494 -493 743 -734 773 -750 54 -28 143 -33 204 -13 62 22 128
83 155 146 l23 53 1 3275 c0 2670 -3 3284 -13 3322 -16 57 -67 119 -128 154
-65 39 -160 42 -233 8z"/>
</g>
</svg>
